<svg xmlns="http://www.w3.org/2000/svg" width="1600" height="900" viewBox="0 0 1600 900" fill="none">
  <defs>
    <linearGradient id="bg" x1="180" y1="100" x2="1420" y2="820" gradientUnits="userSpaceOnUse">
      <stop stop-color="#1D4ED8"/>
      <stop offset="1" stop-color="#111827"/>
    </linearGradient>
    <linearGradient id="card" x1="260" y1="190" x2="1250" y2="690" gradientUnits="userSpaceOnUse">
      <stop stop-color="white" stop-opacity="0.92"/>
      <stop offset="1" stop-color="white" stop-opacity="0.78"/>
    </linearGradient>
  </defs>
  <rect width="1600" height="900" rx="48" fill="url(#bg)"/>
  <circle cx="263" cy="180" r="120" fill="white" fill-opacity="0.12"/>
  <circle cx="1320" cy="710" r="170" fill="white" fill-opacity="0.10"/>
  <rect x="230" y="155" width="1140" height="590" rx="34" fill="url(#card)"/>
  <rect x="302" y="236" width="164" height="28" rx="14" fill="#DBEAFE"/>
  <rect x="302" y="304" width="734" height="78" rx="18" fill="#0F172A" fill-opacity="0.92"/>
  <rect x="302" y="410" width="624" height="22" rx="11" fill="#475569" fill-opacity="0.34"/>
  <rect x="302" y="452" width="560" height="22" rx="11" fill="#475569" fill-opacity="0.22"/>
  <rect x="302" y="518" width="250" height="56" rx="18" fill="#111827"/>
  <rect x="574" y="518" width="210" height="56" rx="18" fill="#2563EB"/>
  <rect x="1048" y="290" width="222" height="292" rx="26" fill="#EFF6FF"/>
  <rect x="1090" y="336" width="138" height="138" rx="24" fill="#BFDBFE"/>
  <rect x="1088" y="502" width="142" height="18" rx="9" fill="#1D4ED8" fill-opacity="0.30"/>
  <rect x="1112" y="539" width="94" height="18" rx="9" fill="#1D4ED8" fill-opacity="0.18"/>
  <text x="302" y="266" fill="#1D4ED8" font-family="Arial, sans-serif" font-size="32" font-weight="700">SNS Publish</text>
  <text x="302" y="360" fill="white" font-family="Arial, sans-serif" font-size="56" font-weight="700">Default Showcase Cover</text>
  <text x="302" y="640" fill="white" font-family="Arial, sans-serif" font-size="28" font-weight="600">Editor and template workbench now share the same markdown sample.</text>
</svg>
